<svg width="30" height="30" viewBox="0 0 30 30" fill="none" xmlns="http://www.w3.org/2000/svg">
<g clip-path="url(#clip0_977_353)">
<path d="M16.1998 7H12.7994C9.5181 7 6.84863 9.66947 6.84863 12.9508V15.5011C6.84863 17.8048 8.17722 19.8953 10.2491 20.8787V23.7188C10.2491 23.9654 10.5576 24.0943 10.7328 23.9192L13.2001 21.4519H16.1998C19.4811 21.4519 22.1506 18.7824 22.1506 15.5011V12.9508C22.1506 9.66947 19.4811 7 16.1998 7Z" fill="#665CAC"/>
<path d="M11.0992 20.8787C9.02732 19.8953 7.69873 17.8047 7.69873 15.5011V12.9507C7.69873 9.66946 10.3682 7 13.6495 7H12.7994C9.5181 7 6.84863 9.66947 6.84863 12.9508V15.5011C6.84863 17.8048 8.17722 19.8953 10.2491 20.8787V23.7188C10.2491 23.9654 10.5576 24.0943 10.7328 23.9192L11.0992 23.5528V20.8787Z" fill="#523494"/>
<path d="M18.7786 17.5622L18.5238 16.1821C18.5027 16.068 18.4144 15.9784 18.3007 15.9556L16.297 15.5549C16.2039 15.5364 16.108 15.5654 16.041 15.6324L15.2269 16.4465C13.8554 15.8319 13.0942 15.069 12.4244 13.6386L13.2358 12.8272C13.3028 12.7602 13.3319 12.6641 13.3133 12.5712L12.9126 10.5675C12.8898 10.4538 12.8002 10.3654 12.6861 10.3444L11.306 10.0897C11.2682 10.0827 11.2293 10.0834 11.1918 10.092C10.8274 10.1748 10.4949 10.3584 10.2302 10.6231C9.77197 11.0814 9.59682 11.7501 9.72379 12.5569C9.93692 13.9118 10.6007 15.7974 11.8254 17.027L11.8422 17.0436C13.0708 18.2674 14.9564 18.9313 16.3113 19.1444C16.482 19.1713 16.6464 19.1847 16.8041 19.1847C17.3916 19.1847 17.8838 18.9993 18.2452 18.638C18.5099 18.3733 18.6936 18.0408 18.7763 17.6764C18.7847 17.6389 18.7855 17.6 18.7786 17.5622Z" fill="white"/>
<path d="M12.959 13.1036L13.2361 12.8265L13.2364 12.8262L12.959 13.1035L12.959 13.1036Z" fill="#E5E5E5"/>
<path d="M16.0415 15.6314L15.7617 15.9111L15.7618 15.9112L16.0415 15.6314L16.0415 15.6314Z" fill="#E5E5E5"/>
<path d="M17.3384 18.6496C17.1808 18.6496 17.0164 18.6363 16.8457 18.6094C15.4908 18.3962 13.6052 17.7324 12.3765 16.5085L12.3598 16.4919C11.1351 15.2623 10.4713 13.3768 10.2582 12.0219C10.1556 11.37 10.2504 10.8084 10.5323 10.375C10.4243 10.447 10.323 10.5296 10.2302 10.6224C9.77197 11.0807 9.59682 11.7494 9.72379 12.5563C9.93692 13.9112 10.6007 15.7967 11.8254 17.0263L11.8422 17.0429C13.0708 18.2668 14.9564 18.9306 16.3113 19.1438C16.482 19.1707 16.6464 19.184 16.8041 19.184C17.3916 19.184 17.8838 18.9987 18.2452 18.6373C18.338 18.5445 18.4206 18.4432 18.4926 18.3353C18.1727 18.5434 17.7829 18.6496 17.3384 18.6496Z" fill="#E5E5E5"/>
<path d="M15.0666 11.8174C14.9101 11.8174 14.7832 11.9443 14.7832 12.1007C14.7832 12.2572 14.9101 12.3841 15.0666 12.3841C15.6916 12.3841 16.2 12.8926 16.2 13.5176C16.2 13.672 16.329 13.8009 16.4834 13.8009C16.6378 13.8009 16.7668 13.672 16.7668 13.5176C16.7668 12.5801 16.0041 11.8174 15.0666 11.8174Z" fill="white"/>
<path d="M15.0668 10.6836C14.962 10.6836 14.8562 10.6894 14.7523 10.7009C14.5968 10.718 14.4846 10.858 14.5017 11.0136C14.5189 11.1692 14.6592 11.2811 14.8145 11.2642C14.8978 11.255 14.9826 11.2503 15.0668 11.2503C16.3168 11.2503 17.3337 12.2673 17.3337 13.5173C17.3337 13.6015 17.329 13.6863 17.3198 13.7696C17.3029 13.923 17.4169 14.0655 17.5704 14.0824C17.7239 14.0993 17.8662 13.9853 17.8832 13.8318C17.8947 13.7279 17.9005 13.6221 17.9005 13.5173C17.9005 11.9548 16.6293 10.6836 15.0668 10.6836Z" fill="white"/>
<path d="M15.0668 9.55029C14.9655 9.55029 14.8629 9.55414 14.762 9.56181C14.6059 9.57363 14.489 9.70977 14.5008 9.86579C14.5126 10.0218 14.6492 10.1388 14.8048 10.127C14.8916 10.1204 14.9797 10.117 15.0668 10.117C16.9418 10.117 18.4672 11.6425 18.4672 13.5175C18.4672 13.7828 18.4366 14.0469 18.3762 14.3024C18.3416 14.4488 18.4318 14.601 18.577 14.6408C18.7297 14.6826 18.8914 14.5868 18.9278 14.4327C18.9982 14.1345 19.0339 13.8266 19.0339 13.5175C19.0339 11.3299 17.2543 9.55029 15.0668 9.55029Z" fill="white"/>
</g>
<circle cx="15" cy="15" r="14.75" stroke="#665CAC" stroke-width="0.5"/>
<defs>
<clipPath id="clip0_977_353">
<rect width="17" height="17" fill="white" transform="translate(6 7)"/>
</clipPath>
</defs>
</svg>
