<?xml version="1.0" encoding="utf-8"?><svg width="30" height="30" fill="none" xmlns="http://www.w3.org/2000/svg" viewBox="0 0 30 30"><g clip-path="url(#eclip0_977_353)"><path d="M16.2 7h-3.4a5.957 5.957 0 00-5.951 5.95v2.551a5.953 5.953 0 003.4 5.378v2.84c0 .246.309.375.484.2l2.467-2.467h3c3.281 0 5.95-2.67 5.95-5.95V12.95C22.15 9.669 19.482 7 16.2 7z" fill="#665CAC"/><path d="M11.1 20.879A5.953 5.953 0 017.698 15.5v-2.55c0-3.282 2.67-5.951 5.95-5.951h-.85a5.957 5.957 0 00-5.95 5.95v2.551a5.953 5.953 0 003.4 5.378v2.84c0 .246.309.375.484.2l.366-.366v-2.674z" fill="#523494"/><path d="M18.779 17.562l-.255-1.38a.283.283 0 00-.223-.226l-2.004-.401a.284.284 0 00-.256.077l-.814.815c-1.372-.615-2.133-1.378-2.803-2.808l.812-.812a.283.283 0 00.077-.256l-.4-2.003a.283.283 0 00-.227-.224l-1.38-.254a.282.282 0 00-.114.002 1.978 1.978 0 00-.962.531c-.458.458-.633 1.127-.506 1.934.213 1.355.877 3.24 2.101 4.47l.017.017c1.229 1.223 3.114 1.887 4.47 2.1.17.027.334.04.492.04.588 0 1.08-.185 1.441-.546.265-.265.449-.597.531-.962a.287.287 0 00.003-.114z" fill="#fff"/><path d="M12.959 13.104l.277-.277-.277.277zM16.041 15.631l-.28.28.28-.28zM17.338 18.65c-.157 0-.322-.014-.492-.04-1.355-.214-3.24-.878-4.47-2.101l-.016-.017c-1.225-1.23-1.889-3.115-2.102-4.47-.102-.652-.008-1.214.274-1.647a1.98 1.98 0 00-.302.247c-.458.459-.633 1.127-.506 1.934.213 1.355.877 3.24 2.101 4.47l.017.017c1.229 1.224 3.114 1.888 4.47 2.1.17.028.334.041.492.041.588 0 1.08-.185 1.441-.547.093-.093.176-.194.248-.302-.32.208-.71.315-1.155.315z" fill="#E5E5E5"/><path d="M15.067 11.817a.283.283 0 000 .567c.625 0 1.133.509 1.133 1.134 0 .154.129.283.283.283a.286.286 0 00.284-.283c0-.938-.763-1.7-1.7-1.7z" fill="#fff"/><path d="M15.067 10.684c-.105 0-.21.005-.315.017a.283.283 0 10.063.563 2.27 2.27 0 012.505 2.505.286.286 0 00.25.313.286.286 0 00.313-.25 2.837 2.837 0 00-2.816-3.148z" fill="#fff"/><path d="M15.067 9.55a4.04 4.04 0 00-.305.012.283.283 0 00.043.565 3.404 3.404 0 013.571 4.175.286.286 0 00.201.339.286.286 0 00.35-.208 3.972 3.972 0 00-3.861-4.882z" fill="#fff"/></g><circle cx="15" cy="15" r="14.75" stroke="#665CAC" stroke-width=".5"/><defs><clipPath id="eclip0_977_353"><path fill="#fff" transform="translate(6 7)" d="M0 0h17v17H0z"/></clipPath></defs></svg>