<?xml version="1.0" encoding="utf-8"?><svg viewBox="0 0 60 60" xmlns="http://www.w3.org/2000/svg" xmlns:xlink="http://www.w3.org/1999/xlink"><style>:root>svg{display:none}:root>svg:target{display:block}</style><svg fill="none" viewBox="0 0 13 7" id="arrow-down" xmlns="http://www.w3.org/2000/svg"><path fill-rule="evenodd" clip-rule="evenodd" d="M12.742 1.429L7.123 6.755a.917.917 0 01-1.248 0L.259 1.429a.807.807 0 010-1.184.917.917 0 011.248 0L6.5 4.98 11.493.245a.917.917 0 011.248 0 .807.807 0 010 1.184z" fill="#0B0580"/></svg><svg fill="none" viewBox="0 0 26 12" id="link-arrow" xmlns="http://www.w3.org/2000/svg"><path d="M25.53 6.53a.75.75 0 000-1.06L20.757.697a.75.75 0 00-1.06 1.06L23.939 6l-4.242 4.243a.75.75 0 001.06 1.06L25.53 6.53zM0 6.75h25v-1.5H0v1.5z" fill="#0B0580"/></svg><svg fill="none" viewBox="0 0 28 28" id="star" xmlns="http://www.w3.org/2000/svg"><path d="M28 14l-11.773 2.227L14 28l-2.227-11.773L0 14l11.773-2.227L14 0l2.227 11.773L28 14z" fill="#FFC521"/></svg><svg fill="none" viewBox="0 0 30 30" id="tg" xmlns="http://www.w3.org/2000/svg"><circle cx="15" cy="15" r="14.75" stroke="#039BE5" stroke-width=".5"/><g clip-path="url(#dclip0_977_344)"><path d="M12.278 18.12l-.264 3.723c.378 0 .542-.162.739-.358l1.775-1.696 3.679 2.694c.674.376 1.15.178 1.332-.621l2.414-11.315h.001c.214-.998-.36-1.388-1.018-1.143L6.743 14.838c-.969.376-.954.916-.165 1.16l3.629 1.13 8.428-5.275c.397-.262.758-.117.461.146l-6.818 6.122z" fill="#039BE5"/></g><defs><clipPath id="dclip0_977_344"><path fill="#fff" transform="translate(6 8)" d="M0 0h16v16H0z"/></clipPath></defs></svg><svg fill="none" viewBox="0 0 30 30" id="vb" xmlns="http://www.w3.org/2000/svg"><g clip-path="url(#eclip0_977_353)"><path d="M16.2 7h-3.4a5.957 5.957 0 00-5.951 5.95v2.551a5.953 5.953 0 003.4 5.378v2.84c0 .246.309.375.484.2l2.467-2.467h3c3.281 0 5.95-2.67 5.95-5.95V12.95C22.15 9.669 19.482 7 16.2 7z" fill="#665CAC"/><path d="M11.1 20.879A5.953 5.953 0 017.698 15.5v-2.55c0-3.282 2.67-5.951 5.95-5.951h-.85a5.957 5.957 0 00-5.95 5.95v2.551a5.953 5.953 0 003.4 5.378v2.84c0 .246.309.375.484.2l.366-.366v-2.674z" fill="#523494"/><path d="M18.779 17.562l-.255-1.38a.283.283 0 00-.223-.226l-2.004-.401a.284.284 0 00-.256.077l-.814.815c-1.372-.615-2.133-1.378-2.803-2.808l.812-.812a.283.283 0 00.077-.256l-.4-2.003a.283.283 0 00-.227-.224l-1.38-.254a.282.282 0 00-.114.002 1.978 1.978 0 00-.962.531c-.458.458-.633 1.127-.506 1.934.213 1.355.877 3.24 2.101 4.47l.017.017c1.229 1.223 3.114 1.887 4.47 2.1.17.027.334.04.492.04.588 0 1.08-.185 1.441-.546.265-.265.449-.597.531-.962a.287.287 0 00.003-.114z" fill="#fff"/><path d="M12.959 13.104l.277-.277-.277.277zM16.041 15.631l-.28.28.28-.28zM17.338 18.65c-.157 0-.322-.014-.492-.04-1.355-.214-3.24-.878-4.47-2.101l-.016-.017c-1.225-1.23-1.889-3.115-2.102-4.47-.102-.652-.008-1.214.274-1.647a1.98 1.98 0 00-.302.247c-.458.459-.633 1.127-.506 1.934.213 1.355.877 3.24 2.101 4.47l.017.017c1.229 1.224 3.114 1.888 4.47 2.1.17.028.334.041.492.041.588 0 1.08-.185 1.441-.547.093-.093.176-.194.248-.302-.32.208-.71.315-1.155.315z" fill="#E5E5E5"/><path d="M15.067 11.817a.283.283 0 000 .567c.625 0 1.133.509 1.133 1.134 0 .154.129.283.283.283a.286.286 0 00.284-.283c0-.938-.763-1.7-1.7-1.7z" fill="#fff"/><path d="M15.067 10.684c-.105 0-.21.005-.315.017a.283.283 0 10.063.563 2.27 2.27 0 012.505 2.505.286.286 0 00.25.313.286.286 0 00.313-.25 2.837 2.837 0 00-2.816-3.148z" fill="#fff"/><path d="M15.067 9.55a4.04 4.04 0 00-.305.012.283.283 0 00.043.565 3.404 3.404 0 013.571 4.175.286.286 0 00.201.339.286.286 0 00.35-.208 3.972 3.972 0 00-3.861-4.882z" fill="#fff"/></g><circle cx="15" cy="15" r="14.75" stroke="#665CAC" stroke-width=".5"/><defs><clipPath id="eclip0_977_353"><path fill="#fff" transform="translate(6 7)" d="M0 0h17v17H0z"/></clipPath></defs></svg><svg fill="none" viewBox="0 0 60 60" id="why1" xmlns="http://www.w3.org/2000/svg"><path d="M30 60l30-29.997L30 0 0 29.997l30 29.997V60zM15 30.003l15-14.998 15 14.998-15 14.998-15-14.998z" fill="#387EFF"/></svg><svg fill="none" viewBox="0 0 60 60" id="why2" xmlns="http://www.w3.org/2000/svg"><path d="M60 0c0 33.118-26.882 60-60 60C0 26.882 26.882 0 60 0z" fill="#4DCE7B"/></svg><svg fill="none" viewBox="0 0 60 60" id="why3" xmlns="http://www.w3.org/2000/svg"><path d="M0 60V0h60c0 33.117-26.883 60-60 60z" fill="#FF7927"/></svg><svg fill="none" viewBox="0 0 30 30" id="wp" xmlns="http://www.w3.org/2000/svg"><circle cx="15" cy="15" r="14.75" stroke="#4CAF50" stroke-width=".5"/><g clip-path="url(#iclip0_977_348)"><path d="M14.996 7.005a7.995 7.995 0 00-6.73 12.31l-1.244 3.228a.333.333 0 00.423.434l3.332-1.19a7.995 7.995 0 104.219-14.782z" fill="#4CAF50"/><path d="M18.808 16.366s-.817-.4-1.328-.666c-.578-.298-1.258.26-1.577.577a4.007 4.007 0 01-1.338-.849 4.006 4.006 0 01-.848-1.337c.317-.32.873-1 .576-1.578-.263-.512-.666-1.327-.666-1.328a.333.333 0 00-.297-.183h-.666a2.007 2.007 0 00-1.666 1.999c0 1.046 1.252 3.055 2.096 3.9.844.845 2.854 2.096 3.9 2.096a2.008 2.008 0 002-1.665v-.667a.333.333 0 00-.186-.299z" fill="#FAFAFA"/></g><defs><clipPath id="iclip0_977_348"><path fill="#fff" transform="translate(7 7)" d="M0 0h16v16H0z"/></clipPath></defs></svg></svg>