<?xml version="1.0" encoding="utf-8"?><svg viewBox="0 0 60 60" xmlns="http://www.w3.org/2000/svg" xmlns:xlink="http://www.w3.org/1999/xlink"><style>:root>svg{display:none}:root>svg:target{display:block}</style><svg fill="none" viewBox="0 0 13 7" id="arrow-down" xmlns="http://www.w3.org/2000/svg"><path fill-rule="evenodd" clip-rule="evenodd" d="M12.742 1.429L7.123 6.755a.917.917 0 01-1.248 0L.259 1.429a.807.807 0 010-1.184.917.917 0 011.248 0L6.5 4.98 11.493.245a.917.917 0 011.248 0 .807.807 0 010 1.184z" fill="#0B0580"/></svg><svg fill="none" viewBox="0 0 26 12" id="link-arrow" xmlns="http://www.w3.org/2000/svg"><path d="M25.53 6.53a.75.75 0 000-1.06L20.757.697a.75.75 0 00-1.06 1.06L23.939 6l-4.242 4.243a.75.75 0 001.06 1.06L25.53 6.53zM0 6.75h25v-1.5H0v1.5z" fill="#0B0580"/></svg><svg fill="none" viewBox="0 0 28 28" id="star" xmlns="http://www.w3.org/2000/svg"><path d="M28 14l-11.773 2.227L14 28l-2.227-11.773L0 14l11.773-2.227L14 0l2.227 11.773L28 14z" fill="#FFC521"/></svg><svg fill="none" viewBox="0 0 60 60" id="why1" xmlns="http://www.w3.org/2000/svg"><path d="M30 60l30-29.997L30 0 0 29.997l30 29.997V60zM15 30.003l15-14.998 15 14.998-15 14.998-15-14.998z" fill="#387EFF"/></svg><svg fill="none" viewBox="0 0 60 60" id="why2" xmlns="http://www.w3.org/2000/svg"><path d="M60 0c0 33.118-26.882 60-60 60C0 26.882 26.882 0 60 0z" fill="#4DCE7B"/></svg><svg fill="none" viewBox="0 0 60 60" id="why3" xmlns="http://www.w3.org/2000/svg"><path d="M0 60V0h60c0 33.117-26.883 60-60 60z" fill="#FF7927"/></svg></svg>