<svg width="52" height="116" viewBox="0 0 52 116" fill="none" xmlns="http://www.w3.org/2000/svg">
<path d="M13.1777 9.35608L33.2464 33.6449L13.2357 57.8641L13.1777 57.9163L13.1835 57.9279L13.1777 57.9337L13.2357 57.9916L33.2464 82.2051L13.1777 106.494L23.5367 115.85L51.292 82.2688L51.35 82.2167L51.3442 82.2051L51.35 82.1935L51.292 82.1413L31.2755 57.9279L51.292 33.7086L51.35 33.6565L51.3442 33.6449L51.35 33.6391L51.292 33.5811L23.5367 -3.09704e-05L13.1777 9.35608Z" fill="#387EFF"/>
<path d="M13.178 9.35608L-6.89645 33.6449L13.1143 57.8641L13.178 57.9163L13.1664 57.9279L13.178 57.9337L13.1143 57.9916L-6.89645 82.2051L13.178 106.494L2.81328 115.85L-24.942 82.2688L-25 82.2167L-24.9942 82.2051L-25 82.1935L-24.942 82.1413L-4.92552 57.9279L-24.942 33.7086L-25 33.6565L-24.9942 33.6449L-25 33.6391L-24.942 33.5811L2.81327 -3.17333e-05L13.178 9.35608Z" fill="#387EFF"/>
</svg>
