<svg width="470" height="470" viewBox="0 0 470 470" fill="none" xmlns="http://www.w3.org/2000/svg">
<g clip-path="url(#clip0_1085_116)">
<path d="M392.482 470V391.005H470L392.482 470Z" fill="#FFC521"/>
<path d="M313.466 311.565V390.559H391.007L313.466 311.565Z" fill="#FF5562"/>
<path d="M234.473 470V391.005H312.013L234.473 470Z" fill="#FFC521"/>
<path d="M77.9395 470V391.005H155.48L77.9395 470Z" fill="#FFC521"/>
<path d="M156.933 311.565V390.559H234.473L156.933 311.565Z" fill="#FF5562"/>
<path d="M0.398438 311.565V390.559H77.9392L0.398438 311.565Z" fill="#FF5562"/>
<path d="M392.482 158.435V79.4406H470L392.482 158.435Z" fill="#FFC521"/>
<path d="M313.466 0V78.9946H391.007L313.466 0Z" fill="#FF5562"/>
<path d="M234.473 158.435V79.4406H312.013L234.473 158.435Z" fill="#FFC521"/>
<path d="M77.9395 158.435V79.4406H155.48L77.9395 158.435Z" fill="#FFC521"/>
<path d="M156.933 0V78.9946H234.473L156.933 0Z" fill="#FF5562"/>
<path d="M0.398438 0V78.9946H77.9392L0.398438 0Z" fill="#FF5562"/>
<path d="M392.482 158.881V237.852H470L392.482 158.881Z" fill="#FFC521"/>
<path d="M313.466 317.293V238.298H391.007L313.466 317.293Z" fill="#FF5562"/>
<path d="M234.473 158.881V237.852H312.013L234.473 158.881Z" fill="#FFC521"/>
<path d="M77.9395 158.881V237.852H155.48L77.9395 158.881Z" fill="#FFC521"/>
<path d="M156.933 317.293V238.298H234.473L156.933 317.293Z" fill="#FF5562"/>
<path d="M0.398438 317.293V238.298H77.9392L0.398438 317.293Z" fill="#FF5562"/>
</g>
<defs>
<clipPath id="clip0_1085_116">
<rect width="470" height="470" fill="white"/>
</clipPath>
</defs>
</svg>
