<svg width="12" height="17" viewBox="0 0 12 17" fill="none" xmlns="http://www.w3.org/2000/svg">
<path d="M1.572 14.096C1.244 14.096 0.968 13.984 0.744 13.76C0.52 13.536 0.408 13.256 0.408 12.92C0.408 12.576 0.52 12.3 0.744 12.092C0.968 11.876 1.244 11.768 1.572 11.768C1.9 11.768 2.176 11.876 2.4 12.092C2.624 12.3 2.736 12.576 2.736 12.92C2.736 13.256 2.624 13.536 2.4 13.76C2.176 13.984 1.9 14.096 1.572 14.096Z" fill="black"/>
<path d="M5.572 12.096C5.244 12.096 4.968 11.984 4.744 11.76C4.52 11.536 4.408 11.256 4.408 10.92C4.408 10.576 4.52 10.3 4.744 10.092C4.968 9.876 5.244 9.768 5.572 9.768C5.9 9.768 6.176 9.876 6.4 10.092C6.624 10.3 6.736 10.576 6.736 10.92C6.736 11.256 6.624 11.536 6.4 11.76C6.176 11.984 5.9 12.096 5.572 12.096Z" fill="black"/>
<path d="M9.572 14.096C9.244 14.096 8.968 13.984 8.744 13.76C8.52 13.536 8.408 13.256 8.408 12.92C8.408 12.576 8.52 12.3 8.744 12.092C8.968 11.876 9.244 11.768 9.572 11.768C9.9 11.768 10.176 11.876 10.4 12.092C10.624 12.3 10.736 12.576 10.736 12.92C10.736 13.256 10.624 13.536 10.4 13.76C10.176 13.984 9.9 14.096 9.572 14.096Z" fill="black"/>
</svg>
