<svg width="25" height="25" viewBox="0 0 25 25" fill="none" xmlns="http://www.w3.org/2000/svg">
<path d="M21.5909 0H3.40909C1.5263 0 0 1.5263 0 3.40909V21.5909C0 23.4737 1.5263 25 3.40909 25H21.5909C23.4737 25 25 23.4737 25 21.5909V3.40909C25 1.5263 23.4737 0 21.5909 0Z" fill="#387EFF"/>
<path d="M9.00551 6.81818C9.00551 7.23959 8.88054 7.65154 8.64642 8.00193C8.4123 8.35231 8.07953 8.62541 7.6902 8.78668C7.30087 8.94794 6.87246 8.99014 6.45915 8.90792C6.04584 8.82571 5.66619 8.62278 5.3682 8.3248C5.07022 8.02682 4.86729 7.64717 4.78508 7.23386C4.70287 6.82055 4.74506 6.39214 4.90633 6.00281C5.0676 5.61347 5.34069 5.28071 5.69108 5.04658C6.04147 4.81246 6.45341 4.6875 6.87482 4.6875C7.43992 4.6875 7.98186 4.91198 8.38144 5.31156C8.78102 5.71114 9.00551 6.25309 9.00551 6.81818ZM8.52255 10.3693V19.7827C8.52293 19.8521 8.50957 19.9209 8.48325 19.9852C8.45694 20.0495 8.41818 20.1079 8.36921 20.1571C8.32024 20.2064 8.26201 20.2455 8.19789 20.2721C8.13377 20.2988 8.06501 20.3125 7.99556 20.3125H5.74982C5.68038 20.3127 5.61158 20.2991 5.54739 20.2727C5.48319 20.2462 5.42487 20.2073 5.37576 20.1581C5.32666 20.109 5.28774 20.0507 5.26126 19.9865C5.23477 19.9223 5.22123 19.8535 5.22141 19.7841V10.3693C5.22141 10.2292 5.27709 10.0948 5.37618 9.99568C5.47528 9.89658 5.60968 9.84091 5.74982 9.84091H7.99556C8.13546 9.84128 8.2695 9.89712 8.36829 9.99618C8.46708 10.0952 8.52255 10.2294 8.52255 10.3693ZM20.2612 15.2699V19.8267C20.2614 19.8906 20.2489 19.9538 20.2246 20.0128C20.2002 20.0719 20.1645 20.1255 20.1193 20.1706C20.0742 20.2158 20.0205 20.2516 19.9615 20.2759C19.9025 20.3002 19.8392 20.3127 19.7754 20.3125H17.3606C17.2968 20.3127 17.2335 20.3002 17.1745 20.2759C17.1155 20.2516 17.0618 20.2158 17.0167 20.1706C16.9715 20.1255 16.9358 20.0719 16.9114 20.0128C16.8871 19.9538 16.8746 19.8906 16.8748 19.8267V15.4105C16.8748 14.7514 17.068 12.5241 15.1518 12.5241C13.6674 12.5241 13.3649 14.0483 13.3052 14.733V19.8267C13.3052 19.9543 13.255 20.0768 13.1655 20.1677C13.0759 20.2586 12.9541 20.3106 12.8265 20.3125H10.4941C10.4304 20.3125 10.3673 20.2999 10.3085 20.2755C10.2496 20.2511 10.1961 20.2153 10.1511 20.1701C10.1061 20.125 10.0705 20.0714 10.0462 20.0125C10.022 19.9536 10.0096 19.8904 10.0098 19.8267V10.3281C10.0096 10.2644 10.022 10.2013 10.0462 10.1423C10.0705 10.0834 10.1061 10.0298 10.1511 9.9847C10.1961 9.93957 10.2496 9.90377 10.3085 9.87934C10.3673 9.8549 10.4304 9.84233 10.4941 9.84233H12.8265C12.9554 9.84233 13.0789 9.89351 13.17 9.98462C13.2611 10.0757 13.3123 10.1993 13.3123 10.3281V11.1491C13.8635 10.3224 14.6802 9.68466 16.4231 9.68466C20.2839 9.68466 20.2612 13.2898 20.2612 15.2699Z" fill="white"/>
</svg>
