<svg width="20" height="20" viewBox="0 0 20 20" fill="none" xmlns="http://www.w3.org/2000/svg">
<path d="M18.0684 2.76063L11.1934 17.7606C11.1361 17.8867 11.0385 17.9901 10.916 18.0547C10.7935 18.1192 10.6531 18.1413 10.5167 18.1174C10.3803 18.0935 10.2557 18.025 10.1625 17.9227C10.0692 17.8203 10.0126 17.6899 10.0015 17.5519L9.42028 10.5788L2.44778 9.9975C2.30999 9.98617 2.17985 9.92946 2.07773 9.83627C1.97561 9.74308 1.90727 9.61866 1.8834 9.48248C1.85954 9.34631 1.8815 9.20606 1.94585 9.0837C2.0102 8.96134 2.11331 8.86376 2.23903 8.80625L17.239 1.93125C17.355 1.87801 17.4845 1.86155 17.6101 1.88409C17.7358 1.90663 17.8515 1.96708 17.9417 2.05733C18.0319 2.14757 18.0924 2.26328 18.1149 2.38889C18.1375 2.51451 18.121 2.64401 18.0678 2.76L18.0684 2.76063Z" fill="white"/>
</svg>
