<svg width="123" height="24" viewBox="0 0 123 24" fill="none" xmlns="http://www.w3.org/2000/svg">
<g clip-path="url(#clip0_977_396)">
<path d="M4.54619 23.4715H0.00878906V3.90389C0.00878906 2.82961 0.421282 1.98552 1.24626 1.37163C2.07124 0.735825 3.17122 0.428879 4.54619 0.450803V23.4715Z" fill="white"/>
<path d="M7.46582 3.93694C7.46582 2.95032 7.77521 2.12815 8.39391 1.47042C9.01265 0.790754 9.89492 0.450928 11.0408 0.450928H11.797L22.178 15.6117V0.450928H26.7154V23.4716H22.3499L12.0032 8.37664V23.4716H7.46582V3.93694Z" fill="white"/>
<path d="M37.033 3.50924C38.0184 1.07563 39.9435 0.0999864 42.8081 0.582324L52.0204 23.4715H47.2765L45.4203 18.7687C43.037 18.7687 41.5935 18.8126 41.0891 18.9002C39.508 19.1195 38.8776 19.7444 39.1986 20.7748C38.1444 20.4898 37.3997 20.0184 36.9643 19.3606C36.5289 18.681 36.3914 18.0013 36.5518 17.3217C36.7122 16.642 37.0789 16.072 37.6517 15.6116C37.9038 15.4143 38.1903 15.2498 38.5111 15.1183C38.8549 14.9648 39.1643 14.8552 39.4391 14.7894C39.7142 14.7017 40.081 14.6469 40.5392 14.625C40.9974 14.5811 41.3411 14.5592 41.5704 14.5592C41.7996 14.5373 42.1777 14.5373 42.7048 14.5592C43.2547 14.5592 43.5984 14.5592 43.736 14.5592L40.5049 6.66638C38.3736 11.8844 36.1049 17.4861 33.6987 23.4715H28.9551L37.033 3.50924Z" fill="white"/>
<path d="M59.134 19.2949H67.3838V23.4715H54.5967V3.90389C54.5967 2.82961 55.009 1.98552 55.834 1.37163C56.659 0.735825 57.7592 0.428879 59.134 0.450803V19.2949Z" fill="white"/>
<path d="M74.8245 23.4718H70.2871V3.90414C70.2871 2.82986 70.6998 1.98576 71.5248 1.37188C72.3498 0.736069 73.4496 0.429123 74.8245 0.451047V23.4718Z" fill="white"/>
<path d="M89.5013 0.0234375C92.8927 0.0234375 95.7916 1.1964 98.1981 3.54232C100.627 5.8663 101.841 8.71651 101.841 12.0929C101.841 15.4473 100.65 18.2646 98.2666 20.5448C95.8606 22.8468 92.9501 23.9979 89.5356 23.9979C85.9377 23.9979 82.9587 22.814 80.5985 20.4461C78.2379 18.1002 77.0576 15.2829 77.0576 11.9942C77.0576 10.1306 77.367 8.61782 77.9859 7.45583C78.6965 6.0746 79.8879 5.20857 81.5607 4.85779C83.2338 4.48507 84.6773 4.72625 85.8919 5.58129C87.1065 6.43637 87.4845 7.69701 87.0263 9.36326C86.4306 8.68363 85.6973 8.33281 84.8264 8.31091C83.9783 8.28897 83.2223 8.66169 82.5576 9.42903C81.916 10.1964 81.6181 11.2488 81.664 12.5862C81.7557 14.8663 82.6951 16.697 84.4827 18.0782C85.9493 19.2403 87.6336 19.8213 89.5356 19.8213C91.667 19.8213 93.4888 19.0758 95.0013 17.585C96.5137 16.0722 97.2698 14.2305 97.2698 12.06C97.2698 9.88945 96.5137 8.0478 95.0013 6.53502C93.443 5.04415 91.5868 4.29871 89.4324 4.29871C88.4243 4.29871 87.5076 4.44123 86.6826 4.72625C85.8576 4.00274 84.769 3.61905 83.4169 3.57521C82.0878 3.53136 80.8732 3.83828 79.7735 4.49605C80.7357 3.35596 81.8932 2.40224 83.245 1.63489C85.1929 0.560588 87.2783 0.0234375 89.5013 0.0234375Z" fill="white"/>
<path d="M103.74 3.93694C103.74 2.95032 104.05 2.12815 104.669 1.47042C105.287 0.790754 106.169 0.450928 107.315 0.450928H108.071L118.452 15.6117V0.450928H122.99V23.4716H118.624L108.278 8.37664V23.4716H103.74V3.93694Z" fill="white"/>
</g>
<defs>
<clipPath id="clip0_977_396">
<rect width="123" height="24" fill="white"/>
</clipPath>
</defs>
</svg>
