<svg width="111" height="35" viewBox="0 0 111 35" fill="none" xmlns="http://www.w3.org/2000/svg">
<path d="M0.204584 3.95675H6.23426V33.4727H0.204584V3.95675ZM3.87299 9.05878V3.95675H9.73401C12.0672 3.95675 14.049 4.33624 15.6794 5.09522C17.3379 5.8542 18.6028 6.93645 19.4743 8.34197C20.3457 9.74749 20.7814 11.4201 20.7814 13.3597C20.7814 15.2712 20.3457 16.9437 19.4743 18.3774C18.6028 19.7829 17.3379 20.8651 15.6794 21.6241C14.049 22.3831 12.0672 22.7626 9.73401 22.7626H3.87299V17.6606H9.73401C11.3363 17.6606 12.6013 17.2951 13.5289 16.5643C14.4566 15.8334 14.9204 14.7652 14.9204 13.3597C14.9204 11.926 14.4566 10.8578 13.5289 10.1551C12.6013 9.42422 11.3363 9.05878 9.73401 9.05878H3.87299ZM29.1569 0.583502V33.4727H23.6753V0.583502H29.1569ZM36.1985 21.6663C36.1985 20.3732 35.9455 19.3894 35.4395 18.7147C34.9617 18.0401 34.1465 17.7027 32.9939 17.7027C32.2349 17.7027 31.5603 17.8714 30.97 18.2087C30.3797 18.5179 29.9299 18.9677 29.6207 19.558C29.3115 20.1483 29.1569 20.8511 29.1569 21.6663H28.0606C28.0606 20.1202 28.3135 18.7288 28.8195 17.4919C29.3536 16.255 30.1407 15.2712 31.1808 14.5403C32.2209 13.8094 33.4999 13.444 35.0179 13.444C36.5358 13.444 37.7867 13.7251 38.7706 14.2873C39.7545 14.8495 40.4853 15.6928 40.9632 16.8173C41.4411 17.9136 41.68 19.2629 41.68 20.8651V33.4727H36.1985V21.6663ZM49.6783 27.443C49.6783 28.0052 49.8189 28.4971 50.1 28.9188C50.3811 29.3123 50.7606 29.6215 51.2384 29.8464C51.7444 30.0432 52.2926 30.1416 52.8829 30.1416C53.7262 30.1416 54.4852 29.9729 55.1598 29.6356C55.8345 29.2702 56.3826 28.7642 56.8043 28.1176C57.226 27.443 57.4368 26.6418 57.4368 25.7142L58.1114 28.2441C58.1114 29.481 57.7601 30.5211 57.0573 31.3644C56.3826 32.2077 55.4972 32.8402 54.4009 33.2618C53.3327 33.6835 52.2083 33.8943 51.0276 33.8943C49.8189 33.8943 48.6945 33.6554 47.6544 33.1775C46.6143 32.6996 45.771 32.0109 45.1244 31.1114C44.506 30.1837 44.1968 29.0593 44.1968 27.7381C44.1968 25.8547 44.8574 24.3649 46.1786 23.2686C47.4998 22.1723 49.3691 21.6241 51.7866 21.6241C53.0235 21.6241 54.1057 21.7506 55.0333 22.0036C55.9891 22.2566 56.7902 22.5658 57.4368 22.9313C58.0833 23.2967 58.5471 23.6481 58.8282 23.9854V26.5153C58.0693 25.9531 57.2119 25.5315 56.2561 25.2504C55.3285 24.9693 54.3446 24.8287 53.3046 24.8287C52.4612 24.8287 51.7725 24.9412 51.2384 25.166C50.7043 25.3628 50.3108 25.658 50.0578 26.0515C49.8048 26.4169 49.6783 26.8808 49.6783 27.443ZM47.57 19.558L45.5461 15.8474C46.5581 15.3133 47.7949 14.8074 49.2567 14.3295C50.7184 13.8235 52.3488 13.5705 54.1479 13.5705C55.8064 13.5705 57.2822 13.8094 58.5753 14.2873C59.8683 14.7652 60.8803 15.468 61.6112 16.3956C62.342 17.2951 62.7075 18.4055 62.7075 19.7267V33.4727H57.4368V20.8651C57.4368 20.331 57.3525 19.8813 57.1838 19.5158C57.0151 19.1223 56.7481 18.799 56.3826 18.546C56.0453 18.293 55.6377 18.1103 55.1598 17.9979C54.682 17.8854 54.1479 17.8292 53.5576 17.8292C52.658 17.8292 51.8007 17.9276 50.9855 18.1244C50.1702 18.3212 49.4675 18.5601 48.8772 18.8412C48.2869 19.1223 47.8511 19.3612 47.57 19.558ZM71.8778 14.0765V33.4727H66.5228V14.0765H71.8778ZM77.5702 19.7688C77.2048 19.4315 76.8253 19.1785 76.4317 19.0099C76.0663 18.8131 75.6025 18.7147 75.0403 18.7147C74.3656 18.7147 73.7893 18.8974 73.3115 19.2629C72.8336 19.6283 72.4682 20.1483 72.2152 20.823C71.9903 21.4695 71.8778 22.2566 71.8778 23.1843L70.3599 21.6663C70.3599 20.1202 70.655 18.7569 71.2454 17.5762C71.8357 16.3675 72.6087 15.4117 73.5645 14.709C74.5202 13.9781 75.5041 13.6127 76.5161 13.6127C77.2188 13.6127 77.8794 13.7392 78.4978 13.9922C79.1444 14.2452 79.6644 14.6246 80.058 15.1306L77.5702 19.7688ZM90.2199 33.8943C88.1116 33.8943 86.2704 33.4727 84.6962 32.6293C83.122 31.786 81.8992 30.6195 81.0278 29.1296C80.1845 27.6116 79.7628 25.8266 79.7628 23.7746C79.7628 21.6944 80.1845 19.9094 81.0278 18.4195C81.8992 16.9016 83.122 15.735 84.6962 14.9198C86.2704 14.0765 88.1256 13.6548 90.262 13.6548C92.3984 13.6548 94.2115 14.0484 95.7014 14.8355C97.2194 15.5944 98.3719 16.7189 99.159 18.2087C99.9461 19.6705 100.34 21.4414 100.34 23.5216C100.34 23.7746 100.326 24.0416 100.297 24.3227C100.297 24.6038 100.283 24.8287 100.255 24.9974H82.8831V21.6241H95.4906L94.0148 23.5637C94.1272 23.3951 94.2256 23.1702 94.3099 22.8891C94.4224 22.5799 94.4786 22.3269 94.4786 22.1301C94.4786 21.1744 94.2959 20.3592 93.9304 19.6845C93.5931 19.0099 93.1012 18.4758 92.4546 18.0822C91.8081 17.6887 91.0491 17.4919 90.1777 17.4919C89.1095 17.4919 88.21 17.7308 87.4791 18.2087C86.7763 18.6585 86.2282 19.3472 85.8346 20.2748C85.4692 21.1744 85.2724 22.2988 85.2443 23.6481C85.2443 24.9412 85.427 26.0375 85.7925 26.937C86.186 27.8365 86.7623 28.5252 87.5213 29.0031C88.2802 29.481 89.1938 29.7199 90.262 29.7199C91.4708 29.7199 92.4968 29.495 93.3401 29.0453C94.2115 28.5674 94.9284 27.8646 95.4906 26.937L100.255 28.4128C99.2433 30.24 97.894 31.6174 96.2074 32.545C94.5489 33.4445 92.553 33.8943 90.2199 33.8943Z" fill="#374483"/>
<path d="M103.7 30.9849C103.7 30.0291 104.023 29.228 104.669 28.5814C105.344 27.9068 106.173 27.5695 107.157 27.5695C108.169 27.5695 108.998 27.9068 109.645 28.5814C110.292 29.228 110.615 30.0291 110.615 30.9849C110.615 31.8844 110.292 32.6715 109.645 33.3462C108.998 34.0208 108.169 34.3581 107.157 34.3581C106.173 34.3581 105.344 34.0208 104.669 33.3462C104.023 32.6715 103.7 31.8844 103.7 30.9849Z" fill="#66A182"/>
</svg>
