<svg width="18" height="18" viewBox="0 0 18 18" fill="none" xmlns="http://www.w3.org/2000/svg">
<g opacity="0.2" clip-path="url(#clip0_1085_379)">
<path d="M16.2045 4.08412H12.3278V2.522C12.3278 1.77819 11.7227 1.1731 10.9789 1.1731H7.02084C6.27703 1.1731 5.6719 1.77819 5.6719 2.522V4.08412H1.79519C0.807629 4.08412 0.00415926 4.88759 0.00415926 5.87516C0.00415926 6.77221 -0.0877097 7.57782 0.592078 8.4838C0.976692 8.99638 1.50523 9.36204 2.12054 9.54117L8.09556 11.2808C8.68708 11.453 9.31245 11.4531 9.90409 11.2808L15.8791 9.54117C16.4944 9.362 17.023 8.99638 17.4076 8.4838C18.0904 7.57375 17.9955 6.75986 17.9955 5.87516C17.9955 4.88759 17.1921 4.08412 16.2045 4.08412ZM6.81446 2.522C6.81446 2.4082 6.90704 2.31566 7.02084 2.31566H10.9789C11.0927 2.31566 11.1853 2.40824 11.1853 2.522V4.08412H6.81446V2.522Z" fill="black"/>
<path d="M16.1983 10.6383C9.75348 12.5148 9.83692 12.5527 8.99957 12.5527C8.16821 12.5527 8.36545 12.5497 1.8009 10.6384C1.10876 10.4368 0.495778 10.0653 0.00390625 9.55322V15.036C0.00390625 16.0235 0.80734 16.827 1.79494 16.827H16.2042C17.1918 16.827 17.9953 16.0235 17.9953 15.036V9.55322C17.5034 10.0653 16.8904 10.4368 16.1983 10.6383Z" fill="black"/>
</g>
<defs>
<clipPath id="clip0_1085_379">
<rect width="18" height="18" fill="white"/>
</clipPath>
</defs>
</svg>
