<svg width="172" height="33" viewBox="0 0 172 33" fill="none" xmlns="http://www.w3.org/2000/svg">
<path d="M18.2957 7.20081C16.6227 5.58025 14.4936 4.76996 11.9081 4.76996C10.144 4.76996 8.83605 5.12159 7.98439 5.82486C7.13272 6.52812 6.70689 7.38427 6.70689 8.3933C6.70689 9.3106 7.11751 10.1056 7.93876 10.7783C8.76001 11.451 9.77897 11.9708 10.9956 12.3377C12.2427 12.674 13.5811 13.1327 15.0106 13.7136C16.4706 14.264 17.809 14.8603 19.0257 15.5024C20.2727 16.1445 21.3069 17.1229 22.1282 18.4377C22.9494 19.722 23.36 21.2661 23.36 23.0701C23.36 25.9137 22.3715 28.1458 20.3944 29.7664C18.4477 31.3564 15.619 32.1514 11.9081 32.1514C9.32272 32.1514 6.98063 31.6163 4.88188 30.5461C2.81355 29.4453 1.30792 28.1153 0.364999 26.5558C0.121666 26.1583 0 25.7303 0 25.2716C0 24.5989 0.228125 24.018 0.684376 23.5288C1.17104 23.0395 1.74896 22.7949 2.41813 22.7949C3.0873 22.7949 3.75646 23.1313 4.42563 23.8039C6.7373 26.1278 9.23147 27.2897 11.9081 27.2897C16.0144 27.2897 18.0675 25.8832 18.0675 23.0701C18.0675 22.1834 17.7634 21.419 17.155 20.7769C16.5467 20.1042 15.7406 19.5691 14.7369 19.1716C13.7636 18.7435 12.6838 18.346 11.4975 17.9791C10.3417 17.6122 9.17064 17.1841 7.98439 16.6949C6.79813 16.2056 5.70313 15.64 4.69938 14.9979C3.72605 14.3252 2.93521 13.4385 2.32688 12.3377C1.71854 11.2064 1.41438 9.89156 1.41438 8.3933C1.41438 5.94716 2.29646 3.94439 4.06063 2.38498C5.85522 0.794993 8.47105 0 11.9081 0C14.1894 0 16.2577 0.3975 18.1132 1.19249C19.9686 1.95691 21.3525 2.99652 22.265 4.31131C22.5692 4.76996 22.7213 5.25919 22.7213 5.77899C22.7213 6.45168 22.4779 7.03264 21.9913 7.52187C21.5046 7.98052 20.9267 8.20984 20.2575 8.20984C19.6796 8.20984 19.0257 7.8735 18.2957 7.20081Z" fill="#4E8563"/>
<path d="M32.8165 2.9353V29.2159C32.8165 29.9497 32.5579 30.5765 32.0409 31.0963C31.5238 31.6161 30.9002 31.876 30.1702 31.876C29.4402 31.876 28.8166 31.6161 28.2996 31.0963C27.7825 30.5765 27.5239 29.9497 27.5239 29.2159V2.9353C27.5239 2.20147 27.7825 1.57465 28.2996 1.05485C28.8166 0.535046 29.4402 0.275146 30.1702 0.275146C30.9002 0.275146 31.5238 0.535046 32.0409 1.05485C32.5579 1.57465 32.8165 2.20147 32.8165 2.9353Z" fill="#4E8563"/>
<path d="M54.9138 25.3632C54.4271 26.2194 53.6819 26.6474 52.6781 26.6474C51.6744 26.6474 50.9292 26.2194 50.4425 25.3632L43.2794 12.5669V29.2617C43.2794 29.965 43.0208 30.5765 42.5037 31.0963C41.9867 31.6161 41.3783 31.876 40.6788 31.876C39.9792 31.876 39.3708 31.6161 38.8538 31.0963C38.3367 30.5765 38.0781 29.965 38.0781 29.2617V2.88944C38.0781 2.18618 38.3367 1.57465 38.8538 1.05485C39.3708 0.535046 39.9792 0.275146 40.6788 0.275146C41.6825 0.275146 42.4581 0.764372 43.0056 1.74282L52.6781 19.1715L62.3506 1.74282C62.8981 0.764372 63.6738 0.275146 64.6775 0.275146C65.3771 0.275146 65.9854 0.535046 66.5025 1.05485C67.0196 1.57465 67.2781 2.18618 67.2781 2.88944V29.2617C67.2781 29.965 67.0196 30.5765 66.5025 31.0963C65.9854 31.6161 65.3771 31.876 64.6775 31.876C63.9779 31.876 63.3696 31.6161 62.8525 31.0963C62.3354 30.5765 62.0769 29.965 62.0769 29.2617V12.5669L54.9138 25.3632Z" fill="#4E8563"/>
<path d="M84.1531 19.4925H78.085V29.2159C78.085 29.9497 77.8264 30.5765 77.3094 31.0963C76.7923 31.6161 76.1687 31.876 75.4387 31.876C74.7087 31.876 74.0852 31.6161 73.5681 31.0963C73.051 30.5765 72.7925 29.9497 72.7925 29.2159V3.30225C72.7925 2.56841 73.051 1.94159 73.5681 1.42179C74.0852 0.901989 74.7087 0.64209 75.4387 0.64209H84.1531C86.9819 0.64209 89.2783 1.43708 91.0425 3.02706C92.8371 4.61704 93.7344 6.95615 93.7344 10.0444C93.7344 13.102 92.8371 15.4411 91.0425 17.0617C89.2783 18.6823 86.9819 19.4925 84.1531 19.4925ZM83.7425 5.41203H78.085V14.7226H83.7425C85.1721 14.7226 86.2823 14.3251 87.0731 13.5301C87.864 12.7045 88.2594 11.5426 88.2594 10.0444C88.2594 8.54613 87.8488 7.39951 87.0275 6.60452C86.2367 5.80953 85.1417 5.41203 83.7425 5.41203Z" fill="#4E8563"/>
<path d="M103.304 26.5557H114.117C114.847 26.5557 115.455 26.8003 115.942 27.2895C116.429 27.7482 116.672 28.3291 116.672 29.0324C116.672 29.7356 116.429 30.3319 115.942 30.8211C115.486 31.2798 114.877 31.5091 114.117 31.5091H100.612C99.8514 31.5091 99.2279 31.2645 98.7412 30.7753C98.2546 30.286 98.0112 29.6745 98.0112 28.9407V2.9353C98.0112 2.20147 98.2698 1.57465 98.7869 1.05485C99.3039 0.535046 99.9275 0.275146 100.657 0.275146C101.387 0.275146 102.011 0.535046 102.528 1.05485C103.045 1.57465 103.304 2.20147 103.304 2.9353V26.5557Z" fill="#4E8563"/>
<path d="M125.671 5.41203V13.6218H134.294C134.933 13.6218 135.48 13.8512 135.936 14.3098C136.393 14.7685 136.621 15.3188 136.621 15.9609C136.621 16.603 136.393 17.1534 135.936 17.6121C135.48 18.0707 134.933 18.3 134.294 18.3H125.671V26.7392H137.761C138.43 26.7392 138.993 26.9685 139.449 27.4272C139.906 27.8858 140.134 28.4515 140.134 29.1241C140.134 29.7968 139.906 30.3625 139.449 30.8211C138.993 31.2798 138.43 31.5091 137.761 31.5091H123.025C122.295 31.5091 121.671 31.2492 121.154 30.7294C120.637 30.2096 120.378 29.5828 120.378 28.849V3.30225C120.378 2.56841 120.637 1.94159 121.154 1.42179C121.671 0.901989 122.295 0.64209 123.025 0.64209H137.259C137.929 0.64209 138.491 0.871412 138.948 1.33006C139.404 1.78871 139.632 2.35438 139.632 3.02706C139.632 3.69975 139.404 4.26541 138.948 4.72406C138.491 5.18271 137.929 5.41203 137.259 5.41203H125.671Z" fill="#4E8563"/>
<path d="M168.259 28.1153C165.765 30.806 162.191 32.1514 157.537 32.1514C152.883 32.1514 149.309 30.806 146.815 28.1153C144.321 25.3939 143.074 21.3884 143.074 16.0986C143.074 10.7477 144.306 6.72687 146.769 4.03612C149.264 1.34538 152.853 0 157.537 0C162.221 0 165.795 1.34538 168.259 4.03612C170.753 6.72687 172 10.7477 172 16.0986C172 21.3884 170.753 25.3939 168.259 28.1153ZM166.525 16.0986C166.525 8.54619 163.529 4.76996 157.537 4.76996C151.545 4.76996 148.549 8.54619 148.549 16.0986C148.549 23.6205 151.545 27.3814 157.537 27.3814C163.529 27.3814 166.525 23.6205 166.525 16.0986Z" fill="#4E8563"/>
</svg>
