<svg width="18" height="23" viewBox="0 0 18 23" fill="none" xmlns="http://www.w3.org/2000/svg">
<path d="M8.62 19.16C8.07333 19.16 7.61333 18.9733 7.24 18.6C6.86667 18.2267 6.68 17.76 6.68 17.2C6.68 16.6267 6.86667 16.1667 7.24 15.82C7.61333 15.46 8.07333 15.28 8.62 15.28C9.16667 15.28 9.62667 15.46 10 15.82C10.3733 16.1667 10.56 16.6267 10.56 17.2C10.56 17.76 10.3733 18.2267 10 18.6C9.62667 18.9733 9.16667 19.16 8.62 19.16Z" fill="black"/>
<path d="M2.62 22.16C2.07333 22.16 1.61333 21.9733 1.24 21.6C0.866667 21.2267 0.68 20.76 0.68 20.2C0.68 19.6267 0.866667 19.1667 1.24 18.82C1.61333 18.46 2.07333 18.28 2.62 18.28C3.16667 18.28 3.62667 18.46 4 18.82C4.37333 19.1667 4.56 19.6267 4.56 20.2C4.56 20.76 4.37333 21.2267 4 21.6C3.62667 21.9733 3.16667 22.16 2.62 22.16Z" fill="black"/>
<path d="M14.62 22.16C14.0733 22.16 13.6133 21.9733 13.24 21.6C12.8667 21.2267 12.68 20.76 12.68 20.2C12.68 19.6267 12.8667 19.1667 13.24 18.82C13.6133 18.46 14.0733 18.28 14.62 18.28C15.1667 18.28 15.6267 18.46 16 18.82C16.3733 19.1667 16.56 19.6267 16.56 20.2C16.56 20.76 16.3733 21.2267 16 21.6C15.6267 21.9733 15.1667 22.16 14.62 22.16Z" fill="black"/>
</svg>
