<svg width="18" height="18" viewBox="0 0 18 18" fill="none" xmlns="http://www.w3.org/2000/svg">
<g clip-path="url(#clip0_1217_10)">
<path d="M9 1C4.58886 1 1 4.58886 1 9C1 13.4111 4.58886 17 9 17C10.4067 17 11.79 16.6299 13.001 15.9292L12 14.1977C11.0928 14.7226 10.0552 15 9 15C5.69142 15 2.99999 12.3086 2.99999 9C2.99999 5.69142 5.69142 2.99999 9 2.99999C12.3086 2.99999 15 5.69142 15 9V9.87109C15 10.5254 14.5796 11 14 11C13.4487 11 13 10.5513 13 9.99998V6H11.6176C10.9141 5.38542 10.0053 4.99998 9 4.99998C6.79443 4.99998 4.99998 6.79443 4.99998 9C4.99998 11.2056 6.79443 13 9 13C10.0503 13 10.9999 12.5847 11.7144 11.9202C12.2651 12.5747 13.0797 13 14 13C15.6821 13 17 11.6255 17 9.87109V9C17 4.58886 13.4111 1 9 1V1ZM9 11C7.89696 11 7.00001 10.103 7.00001 9C7.00001 7.89696 7.89699 7.00001 9 7.00001C10.103 7.00001 11 7.89699 11 9C11 10.103 10.103 11 9 11Z" fill="#01A6FF"/>
</g>
<defs>
<clipPath id="clip0_1217_10">
<rect width="16" height="16" fill="white" transform="translate(1 1)"/>
</clipPath>
</defs>
</svg>
