<svg width="172" height="46" viewBox="0 0 172 46" fill="none" xmlns="http://www.w3.org/2000/svg">
<path d="M28.1883 38H22.2629L8.84589 17.7264V38H2.92041V8.41493H8.84589L22.2629 28.7309V8.41493H28.1883V38ZM39.9695 13.24V20.6468H49.9159V25.3449H39.9695V33.175H51.1856V38H34.0441V8.41493H51.1856V13.24H39.9695ZM62.4113 8.45726V26.7416C62.4113 28.745 62.9333 30.2828 63.9773 31.355C65.0213 32.399 66.4886 32.921 68.3791 32.921C70.2978 32.921 71.7792 32.399 72.8232 31.355C73.8672 30.2828 74.3892 28.745 74.3892 26.7416V8.45726H80.357V26.6993C80.357 29.2105 79.8068 31.3409 78.7064 33.0903C77.6341 34.8115 76.181 36.1095 74.3469 36.9842C72.541 37.8589 70.5236 38.2963 68.2945 38.2963C66.0936 38.2963 64.0902 37.8589 62.2843 36.9842C60.5067 36.1095 59.0959 34.8115 58.0518 33.0903C57.0078 31.3409 56.4858 29.2105 56.4858 26.6993V8.45726H62.4113ZM104.324 8.45726V13.24H92.0076V20.8161H101.446V25.5142H92.0076V38H86.0821V8.45726H104.324ZM109.711 31.3127C112.42 29.0553 114.578 27.1789 116.187 25.6835C117.795 24.1598 119.135 22.5796 120.208 20.9431C121.28 19.3065 121.816 17.6982 121.816 16.1181C121.816 14.679 121.477 13.5503 120.8 12.7321C120.123 11.9138 119.079 11.5046 117.668 11.5046C116.257 11.5046 115.171 11.9843 114.409 12.9437C113.647 13.8748 113.252 15.1587 113.224 16.7952H107.468C107.581 13.4093 108.582 10.8416 110.473 9.09213C112.392 7.3427 114.818 6.46799 117.753 6.46799C120.969 6.46799 123.438 7.32859 125.16 9.0498C126.881 10.7428 127.741 12.986 127.741 15.7795C127.741 17.9803 127.149 20.0825 125.964 22.0859C124.779 24.0892 123.424 25.8387 121.901 27.3341C120.377 28.8014 118.388 30.579 115.933 32.6671H128.419V37.5768H107.51V33.175L109.711 31.3127ZM131.898 31.9899V27.3341L145.739 7.52611H152.638V26.8262H156.362V31.9899H152.638V38H146.712V31.9899H131.898ZM147.093 13.8748L138.416 26.8262H147.093V13.8748Z" fill="#282828"/>
<path d="M163.436 38.2963C162.364 38.2963 161.475 37.9718 160.77 37.3228C160.092 36.6456 159.754 35.8132 159.754 34.8256C159.754 33.8381 160.092 33.0198 160.77 32.3708C161.475 31.6936 162.364 31.355 163.436 31.355C164.48 31.355 165.341 31.6936 166.018 32.3708C166.695 33.0198 167.034 33.8381 167.034 34.8256C167.034 35.8132 166.695 36.6456 166.018 37.3228C165.341 37.9718 164.48 38.2963 163.436 38.2963Z" fill="#86F2E7"/>
</svg>
