<svg width="322" height="400" viewBox="0 0 322 400" fill="none" xmlns="http://www.w3.org/2000/svg">
<rect width="322" height="400" fill="#F7F7FE"/>
<path d="M103.188 215H97.2629L83.8459 194.726V215H77.9204V185.415H83.8459L97.2629 205.731V185.415H103.188V215ZM114.97 190.24V197.647H124.916V202.345H114.97V210.175H126.186V215H109.044V185.415H126.186V190.24H114.97ZM137.411 185.457V203.742C137.411 205.745 137.933 207.283 138.977 208.355C140.021 209.399 141.489 209.921 143.379 209.921C145.298 209.921 146.779 209.399 147.823 208.355C148.867 207.283 149.389 205.745 149.389 203.742V185.457H155.357V203.699C155.357 206.211 154.807 208.341 153.706 210.09C152.634 211.812 151.181 213.109 149.347 213.984C147.541 214.859 145.524 215.296 143.294 215.296C141.094 215.296 139.09 214.859 137.284 213.984C135.507 213.109 134.096 211.812 133.052 210.09C132.008 208.341 131.486 206.211 131.486 203.699V185.457H137.411ZM179.324 185.457V190.24H167.008V197.816H176.446V202.514H167.008V215H161.082V185.457H179.324ZM184.711 208.313C187.42 206.055 189.578 204.179 191.187 202.683C192.795 201.16 194.135 199.58 195.208 197.943C196.28 196.307 196.816 194.698 196.816 193.118C196.816 191.679 196.477 190.55 195.8 189.732C195.123 188.914 194.079 188.505 192.668 188.505C191.257 188.505 190.171 188.984 189.409 189.944C188.647 190.875 188.252 192.159 188.224 193.795H182.468C182.581 190.409 183.582 187.842 185.473 186.092C187.392 184.343 189.818 183.468 192.753 183.468C195.969 183.468 198.438 184.329 200.16 186.05C201.881 187.743 202.741 189.986 202.741 192.779C202.741 194.98 202.149 197.082 200.964 199.086C199.779 201.089 198.424 202.839 196.901 204.334C195.377 205.801 193.388 207.579 190.933 209.667H203.419V214.577H182.51V210.175L184.711 208.313ZM206.898 208.99V204.334L220.739 184.526H227.638V203.826H231.362V208.99H227.638V215H221.712V208.99H206.898ZM222.093 190.875L213.416 203.826H222.093V190.875Z" fill="#282828"/>
<path d="M238.436 215.296C237.364 215.296 236.475 214.972 235.77 214.323C235.092 213.646 234.754 212.813 234.754 211.826C234.754 210.838 235.092 210.02 235.77 209.371C236.475 208.694 237.364 208.355 238.436 208.355C239.48 208.355 240.341 208.694 241.018 209.371C241.695 210.02 242.034 210.838 242.034 211.826C242.034 212.813 241.695 213.646 241.018 214.323C240.341 214.972 239.48 215.296 238.436 215.296Z" fill="#86F2E7"/>
</svg>
