<svg width="322" height="400" viewBox="0 0 322 400" fill="none" xmlns="http://www.w3.org/2000/svg">
<rect width="322" height="400" fill="#F7F7FE"/>
<path d="M80 180.872H88.7095V223.507H80V180.872ZM85.2988 188.242V180.872H93.7647C97.1348 180.872 99.9974 181.421 102.352 182.517C104.748 183.613 106.575 185.176 107.834 187.207C109.093 189.237 109.722 191.653 109.722 194.454C109.722 197.216 109.093 199.631 107.834 201.702C106.575 203.732 104.748 205.296 102.352 206.392C99.9974 207.488 97.1348 208.036 93.7647 208.036H85.2988V200.667H93.7647C96.0791 200.667 97.9063 200.139 99.2462 199.083C100.586 198.028 101.256 196.485 101.256 194.454C101.256 192.384 100.586 190.841 99.2462 189.826C97.9063 188.77 96.0791 188.242 93.7647 188.242H85.2988Z" fill="#374483"/>
<path d="M121.82 176V223.507H113.902V176H121.82ZM131.991 206.453C131.991 204.585 131.626 203.164 130.895 202.19C130.205 201.215 129.027 200.728 127.362 200.728C126.266 200.728 125.292 200.971 124.439 201.459C123.586 201.905 122.937 202.555 122.49 203.408C122.043 204.26 121.82 205.275 121.82 206.453H120.236C120.236 204.22 120.602 202.21 121.333 200.423C122.104 198.637 123.241 197.216 124.743 196.16C126.246 195.104 128.093 194.576 130.286 194.576C132.478 194.576 134.285 194.982 135.706 195.794C137.128 196.606 138.183 197.825 138.874 199.449C139.564 201.032 139.909 202.981 139.909 205.296V223.507H131.991V206.453Z" fill="#374483"/>
<path d="M151.462 214.797C151.462 215.609 151.665 216.32 152.071 216.929C152.477 217.497 153.025 217.944 153.716 218.269C154.446 218.553 155.238 218.695 156.091 218.695C157.309 218.695 158.405 218.451 159.38 217.964C160.354 217.436 161.146 216.705 161.755 215.772C162.364 214.797 162.669 213.64 162.669 212.3L163.643 215.954C163.643 217.741 163.136 219.243 162.121 220.461C161.146 221.679 159.867 222.593 158.284 223.202C156.741 223.811 155.116 224.116 153.411 224.116C151.665 224.116 150.041 223.77 148.539 223.08C147.036 222.39 145.818 221.395 144.884 220.096C143.991 218.756 143.544 217.132 143.544 215.223C143.544 212.503 144.498 210.351 146.407 208.767C148.315 207.184 151.015 206.392 154.507 206.392C156.294 206.392 157.857 206.575 159.197 206.94C160.578 207.306 161.735 207.752 162.669 208.28C163.603 208.808 164.273 209.315 164.679 209.803V213.457C163.582 212.645 162.344 212.036 160.963 211.63C159.623 211.224 158.202 211.021 156.7 211.021C155.482 211.021 154.487 211.183 153.716 211.508C152.944 211.792 152.376 212.219 152.01 212.787C151.645 213.315 151.462 213.985 151.462 214.797ZM148.417 203.408L145.493 198.048C146.955 197.276 148.742 196.546 150.853 195.855C152.964 195.124 155.319 194.759 157.918 194.759C160.314 194.759 162.445 195.104 164.313 195.794C166.181 196.485 167.643 197.5 168.698 198.84C169.754 200.139 170.282 201.743 170.282 203.651V223.507H162.669V205.296C162.669 204.524 162.547 203.875 162.303 203.347C162.06 202.778 161.674 202.311 161.146 201.946C160.659 201.58 160.07 201.317 159.38 201.154C158.69 200.992 157.918 200.91 157.065 200.91C155.766 200.91 154.528 201.053 153.35 201.337C152.173 201.621 151.158 201.966 150.305 202.372C149.452 202.778 148.823 203.123 148.417 203.408Z" fill="#374483"/>
<path d="M183.528 195.49V223.507H175.793V195.49H183.528ZM191.75 203.712C191.222 203.225 190.674 202.859 190.106 202.616C189.578 202.332 188.908 202.19 188.096 202.19C187.121 202.19 186.289 202.453 185.599 202.981C184.909 203.509 184.381 204.26 184.015 205.235C183.69 206.169 183.528 207.306 183.528 208.646L181.335 206.453C181.335 204.22 181.762 202.25 182.614 200.545C183.467 198.799 184.584 197.419 185.964 196.403C187.345 195.348 188.766 194.82 190.228 194.82C191.243 194.82 192.197 195.003 193.09 195.368C194.024 195.733 194.775 196.282 195.344 197.013L191.75 203.712Z" fill="#374483"/>
<path d="M210.022 224.116C206.977 224.116 204.317 223.507 202.043 222.288C199.77 221.07 198.003 219.385 196.745 217.233C195.526 215.041 194.917 212.462 194.917 209.498C194.917 206.494 195.526 203.915 196.745 201.763C198.003 199.571 199.77 197.885 202.043 196.708C204.317 195.49 206.997 194.881 210.083 194.881C213.169 194.881 215.788 195.449 217.94 196.586C220.132 197.682 221.797 199.307 222.934 201.459C224.071 203.57 224.639 206.128 224.639 209.133C224.639 209.498 224.619 209.884 224.579 210.29C224.579 210.696 224.558 211.021 224.518 211.264H199.424V206.392H217.635L215.504 209.194C215.666 208.95 215.808 208.625 215.93 208.219C216.092 207.773 216.174 207.407 216.174 207.123C216.174 205.742 215.91 204.565 215.382 203.59C214.895 202.616 214.184 201.844 213.25 201.276C212.316 200.707 211.22 200.423 209.961 200.423C208.418 200.423 207.119 200.768 206.063 201.459C205.048 202.108 204.256 203.103 203.688 204.443C203.16 205.742 202.876 207.367 202.835 209.315C202.835 211.183 203.099 212.767 203.627 214.066C204.195 215.365 205.028 216.36 206.124 217.051C207.22 217.741 208.54 218.086 210.083 218.086C211.829 218.086 213.311 217.761 214.529 217.111C215.788 216.421 216.823 215.406 217.635 214.066L224.518 216.198C223.056 218.837 221.107 220.827 218.671 222.167C216.275 223.466 213.392 224.116 210.022 224.116Z" fill="#374483"/>
<path d="M231.64 219.243C231.64 217.863 232.107 216.705 233.04 215.772C234.015 214.797 235.213 214.31 236.634 214.31C238.096 214.31 239.293 214.797 240.227 215.772C241.161 216.705 241.628 217.863 241.628 219.243C241.628 220.543 241.161 221.679 240.227 222.654C239.293 223.628 238.096 224.116 236.634 224.116C235.213 224.116 234.015 223.628 233.04 222.654C232.107 221.679 231.64 220.543 231.64 219.243Z" fill="#66A182"/>
</svg>
