<svg width="18" height="18" viewBox="0 0 18 18" fill="none" xmlns="http://www.w3.org/2000/svg">
<g opacity="0.2">
<path d="M8.99989 8.80318C11.0012 8.80318 12.6237 6.83254 12.6237 4.40162C12.6237 1.97064 12.091 0 8.99989 0C5.90878 0 5.37598 1.97064 5.37598 4.40162C5.37598 6.83254 6.9985 8.80318 8.99989 8.80318Z" fill="black"/>
<path d="M2.15501 15.5239C2.15439 15.3757 2.15377 15.4822 2.15501 15.5239V15.5239Z" fill="black"/>
<path d="M15.8438 15.6398C15.8457 15.5992 15.8444 15.3582 15.8438 15.6398V15.6398Z" fill="black"/>
<path d="M15.8367 15.3461C15.7695 11.1114 15.2165 9.90469 10.9843 9.14087C10.9843 9.14087 10.3885 9.90001 8.99995 9.90001C7.61138 9.90001 7.01553 9.14087 7.01553 9.14087C2.8295 9.89636 2.2428 11.0851 2.16566 15.2085C2.15934 15.5452 2.1564 15.5629 2.15527 15.5238C2.15553 15.5971 2.15584 15.7325 2.15584 15.9687C2.15584 15.9687 3.16343 18 8.99995 18C14.8364 18 15.8441 15.9687 15.8441 15.9687C15.8441 15.817 15.8442 15.7114 15.8443 15.6397C15.8432 15.6638 15.8409 15.617 15.8367 15.3461Z" fill="black"/>
</g>
</svg>
